<svg width="140" height="61" viewBox="0 0 140 61" fill="none" xmlns="http://www.w3.org/2000/svg">
<path fill-rule="evenodd" clip-rule="evenodd" d="M76.4579 0C77.2086 0 77.8172 0.608546 77.8172 1.35923V10.7687C77.8172 11.5194 77.2086 12.1279 76.4579 12.1279C75.7072 12.1279 75.0987 11.5194 75.0987 10.7687V1.35923C75.0987 0.608546 75.7072 0 76.4579 0ZM76.4593 17.9455C71.8567 17.9455 67.4403 19.7629 64.1707 23.0023C60.9011 26.2418 59.043 30.6412 59.0004 35.2437C58.9935 35.9943 58.3793 36.5972 57.6287 36.5903C56.878 36.5833 56.2751 35.9692 56.2821 35.2185C56.3313 29.8995 58.4788 24.8151 62.2574 21.0712C66.036 17.3274 71.1401 15.227 76.4593 15.227C81.7786 15.227 86.8827 17.3274 90.6613 21.0712C94.4399 24.8151 96.5874 29.8995 96.6366 35.2185C96.6436 35.9692 96.0407 36.5833 95.29 36.5903C94.5394 36.5972 93.9252 35.9943 93.9183 35.2437C93.8757 30.6412 92.0175 26.2418 88.748 23.0023C85.4784 19.7629 81.062 17.9455 76.4593 17.9455ZM56.6636 7.72731C56.2012 7.136 55.3469 7.03155 54.7556 7.49401C54.1643 7.95647 54.0598 8.81073 54.5223 9.40204L60.3187 16.8134C60.7811 17.4047 61.6354 17.5091 62.2267 17.0466C62.818 16.5842 62.9225 15.7299 62.46 15.1386L56.6636 7.72731ZM42.4403 26.1397C42.6345 25.4146 43.3798 24.9842 44.1049 25.1784L53.194 27.6129C53.9191 27.8071 54.3495 28.5524 54.1552 29.2775C53.961 30.0026 53.2158 30.433 52.4906 30.2388L43.4016 27.8043C42.6765 27.6101 42.2461 26.8648 42.4403 26.1397ZM98.4332 9.40204C98.8957 8.81073 98.7912 7.95647 98.1999 7.49401C97.6086 7.03155 96.7544 7.136 96.2919 7.72731L90.4955 15.1386C90.0331 15.7299 90.1375 16.5842 90.7288 17.0466C91.3201 17.5091 92.1744 17.4047 92.6368 16.8134L98.4332 9.40204ZM110.517 26.1396C110.711 26.8647 110.281 27.61 109.555 27.8043L100.468 30.2388C99.7429 30.433 98.9976 30.0027 98.8033 29.2776C98.6091 28.5524 99.0394 27.8071 99.7645 27.6129L108.852 25.1784C109.577 24.9842 110.322 25.4145 110.517 26.1396ZM75.4761 51.8379H75.3537C74.3372 53.3127 72.8184 54.0502 70.7971 54.0502C68.8983 54.0502 67.4213 53.4013 66.3661 52.1036C65.311 50.8058 64.7834 48.9601 64.7834 46.5664C64.7834 44.1738 65.3131 42.3146 66.3726 40.989C67.432 39.6633 68.9069 39.001 70.7971 39.0021C72.7658 39.0021 74.276 39.7175 75.328 41.1484H75.4986L75.4069 40.1018L75.3537 39.0826V31.4684H77.5531V54.0598H75.7675L75.4761 51.8379ZM71.0789 52.2082C72.5817 52.2082 73.6701 51.8003 74.3442 50.9845C75.0183 50.1687 75.3548 48.8506 75.3537 47.0301V46.5664C75.3537 44.5087 75.0118 43.0403 74.3281 42.1611C73.6443 41.282 72.5511 40.843 71.0483 40.8441C69.7602 40.8441 68.7738 41.3454 68.0889 42.3479C67.4041 43.3505 67.0617 44.7652 67.0617 46.5922C67.0617 48.447 67.402 49.8467 68.0825 50.7913C68.763 51.7359 69.7618 52.2082 71.0789 52.2082ZM47.6591 39.0018C48.2416 38.9963 48.8232 39.0503 49.3948 39.1628L49.0905 41.2028C48.5693 41.0803 48.0366 41.0139 47.5013 41.0047C46.3259 41.0047 45.3212 41.4813 44.4872 42.4345C43.6532 43.3877 43.2361 44.5754 43.2361 45.9977V54.0611H41.04V39.0066H42.8545L43.1057 41.9579H43.212C43.6837 41.0883 44.3505 40.3399 45.1602 39.7714C45.8954 39.2665 46.7672 38.998 47.6591 39.0018ZM6.94117 54.0498C4.79436 54.0498 3.10106 53.3961 1.86128 52.0887C0.621501 50.7813 0.0010734 48.9667 0 46.645C0 44.306 0.576418 42.4474 1.72925 41.0692C2.88209 39.6909 4.4294 39.0018 6.37119 39.0018C8.19061 39.0018 9.63004 39.6002 10.6895 40.7971C11.7489 41.9939 12.2787 43.5723 12.2787 45.5324V46.5322H2.22517C2.26864 48.2374 2.75328 49.9215 3.5696 50.8039C4.38593 51.6862 5.53715 52.129 7.02006 52.129C8.61649 52.1221 10.1946 51.7884 11.6572 51.1484V53.1095C10.9477 53.4227 10.2088 53.6644 9.45132 53.8309C8.62427 53.9893 7.78316 54.0627 6.94117 54.0498ZM6.34543 40.847C5.17971 40.847 4.25014 41.2264 3.55672 41.9853C2.8633 42.7442 2.45487 43.7951 2.33143 45.1379H9.92147C9.92147 43.7511 9.61233 42.6895 8.99405 41.9531C8.37577 41.2168 7.49289 40.847 6.34543 40.8437V40.847ZM33.62 54.0498C31.4732 54.0498 29.7799 53.3961 28.5401 52.0887C27.3003 50.7813 26.6799 48.9667 26.6788 46.645C26.6788 44.306 27.2547 42.4474 28.4065 41.0692C29.5582 39.6909 31.1061 39.0018 33.05 39.0018C34.8694 39.0018 36.3089 39.6002 37.3683 40.7971C38.4278 41.9939 38.9596 43.5723 38.9639 45.5324V46.5323H28.904C28.9475 48.2374 29.4305 49.9215 30.2484 50.8039C31.0664 51.6862 32.216 52.129 33.6989 52.129C35.2948 52.1221 36.8724 51.7884 38.3344 51.1484V53.1095C37.6255 53.423 36.8871 53.6646 36.1301 53.8309C35.3031 53.9893 34.462 54.0626 33.62 54.0498ZM33.0226 40.847C31.8569 40.847 30.9279 41.2264 30.2355 41.9853C29.5432 42.7442 29.1348 43.7951 29.0102 45.1379H36.6003C36.6003 43.7511 36.2911 42.6895 35.6729 41.9531C35.0546 41.2168 34.1712 40.847 33.0226 40.8437V40.847ZM12.5757 39.0677L18.2883 54.1157L20.6519 54.1222L26.3662 39.0677H24.0042C22.2041 44.0123 20.9482 47.4821 20.433 48.9521C19.9156 50.4216 19.6086 51.3909 19.512 51.86H19.4057C19.2812 51.2589 18.8663 49.9515 18.1611 47.9378L14.9506 39.0677H12.5757ZM52.9617 39.0054H50.598L56.5522 53.8667L55.7472 55.9325C55.102 57.6285 54.0243 58.4765 52.5141 58.4765C51.9667 58.4812 51.4204 58.4273 50.8846 58.3154V60.0769C51.5363 60.2266 52.2028 60.3022 52.8715 60.3023C54.0737 60.3045 55.0875 59.9626 55.913 59.2767C56.7384 58.5908 57.4603 57.4315 58.0786 55.7989L64.4208 39.0054H62.0539C60.0236 44.6231 58.7291 48.2378 58.362 49.3278C57.9959 50.4184 57.7555 51.1891 57.6406 51.6399H57.5376C57.3691 50.7995 56.9365 49.4352 56.2398 47.5471L52.9617 39.0054ZM88.6474 51.7188L89.0854 54.0502L90.7148 54.0631V43.8905C90.7137 42.1891 90.2962 40.9547 89.4621 40.1872C88.6281 39.4197 87.3454 39.036 85.614 39.036C84.7493 39.0342 83.888 39.1424 83.0507 39.358C82.2337 39.5694 81.4454 39.8792 80.7031 40.2806L81.3794 41.9632C82.9058 41.2214 84.2744 40.8506 85.4852 40.8506C86.5618 40.8517 87.3454 41.1232 87.8359 41.6653C88.3265 42.2074 88.5717 43.0484 88.5717 44.1883V45.0819L86.1083 45.1624C81.4186 45.3041 79.0737 46.8407 79.0737 49.7722C79.0759 51.1408 79.4843 52.1959 80.299 52.9376C81.1137 53.6794 82.2408 54.0502 83.6802 54.0502C84.7569 54.0502 85.6553 53.8892 86.3755 53.5672C87.0958 53.2452 87.8177 52.629 88.5411 51.7188H88.6474ZM87.3384 51.1118C86.5602 51.8632 85.4868 52.2389 84.1182 52.2389C83.2487 52.2367 82.5736 52.0285 82.0927 51.6141C81.6118 51.1998 81.3713 50.5949 81.3713 49.7995C81.3703 48.7852 81.7562 48.037 82.529 47.5551C83.3019 47.0731 84.5626 46.8015 86.3111 46.7403L88.5106 46.647V47.9592C88.5073 49.3095 88.1166 50.3604 87.3384 51.1118ZM90.8274 39.0054H93.1846L96.4693 47.5471C97.167 49.4352 97.5995 50.7995 97.767 51.6399H97.8733C97.9881 51.1891 98.2286 50.4184 98.5946 49.3278C98.9617 48.2378 100.256 44.6231 102.288 39.0054H104.658L98.3144 55.7989C97.6962 57.4315 96.9738 58.5908 96.1472 59.2767C95.3207 59.9626 94.3074 60.3045 93.1074 60.3023C92.4387 60.3022 91.7722 60.2266 91.1205 60.0769V58.3154C91.6563 58.4273 92.2026 58.4812 92.7499 58.4765C94.2602 58.4765 95.3379 57.6285 95.983 55.9325L96.7881 53.8667L90.8274 39.0054ZM111.601 54.0502H112.911V31.4684H111.601V54.0502ZM116.464 35.2247C116.464 34.3777 116.742 33.9543 117.298 33.9543C117.424 33.9496 117.55 33.9775 117.663 34.0353C117.776 34.0931 117.872 34.1788 117.942 34.2844C118.113 34.567 118.194 34.895 118.174 35.2247C118.191 35.5546 118.111 35.8824 117.942 36.1666C117.874 36.2749 117.778 36.3636 117.665 36.4237C117.552 36.4839 117.426 36.5135 117.298 36.5095C116.742 36.5095 116.464 36.0812 116.464 35.2247ZM117.96 54.05H116.649V39.0052H117.96V54.05ZM124.2 40.1518H127.591L127.593 39.0118H124.202V36.4888C124.203 35.1298 124.418 34.1477 124.846 33.5423C125.274 32.9369 126 32.6342 127.024 32.6342C127.739 32.6372 128.449 32.749 129.131 32.9659L129.432 31.8259C128.659 31.5907 127.855 31.4703 127.047 31.4685C125.563 31.4652 124.498 31.8764 123.854 32.7018C123.21 33.5272 122.888 34.8234 122.888 36.5902V39.0054L120.212 39.4964V40.1518H122.888V54.0502H124.2V40.1518ZM135.102 54.0498C133.009 54.0498 131.378 53.4057 130.208 52.1177C129.038 50.8296 128.453 49.0236 128.453 46.6997C128.453 44.4036 129.018 42.5649 130.148 41.1834C131.278 39.802 132.802 39.1107 134.718 39.1096C136.413 39.1096 137.751 39.7 138.732 40.8807C139.712 42.0658 140 43.6727 140 45.711V46.5386H129.812C129.828 48.5175 130.309 50.2596 131.214 51.3013C132.119 52.3431 133.415 52.8647 135.102 52.8647C135.828 52.8723 136.553 52.8147 137.268 52.6925C138.078 52.5195 138.87 52.271 139.633 51.9502V53.1417C138.911 53.4665 138.155 53.709 137.379 53.8646C136.627 53.9952 135.865 54.0572 135.102 54.0498ZM134.718 40.2737C133.332 40.2737 132.219 40.731 131.38 41.6455C130.54 42.5601 130.05 43.8777 129.91 45.5983H138.604C138.604 43.9303 138.443 42.6245 137.72 41.6842C136.998 40.7439 135.999 40.2737 134.718 40.2737Z" fill="#25BA25"/>
</svg>
